%FSLAX45Y45*%
G04 Gerber Fmt 4.5, Leading zero omitted, Abs format (unit mm)*
G04 Created by KiCad (PCBNEW 5.1.12-84ad8e8a86~92~ubuntu20.04.1) date 2021-11-20 17:30:18*
%MOMM*%
%LPD*%
G01*
G04 APERTURE LIST*
%TA.AperFunction,Profile*%
%ADD10C,0.050000*%
%TD*%
%ADD11C,0.200000*%
%ADD12C,0.300000*%
G04 APERTURE END LIST*
D10*
X2032000Y-2032000D02*
X2032000Y-14097000D01*
X11938000Y-2032000D02*
X2032000Y-2032000D01*
X11938000Y-14097000D02*
X11938000Y-2032000D01*
X2032000Y-14097000D02*
X11938000Y-14097000D01*
D11*
X5107000Y-11254000D02*
X5307000Y-11454000D01*
X5307000Y-11254000D02*
X5107000Y-11454000D01*
X5132000Y-11444000D02*
X5282000Y-11444000D01*
X5132000Y-11264000D02*
X5282000Y-11264000D01*
X5282000Y-11444000D02*
G75*
G03*
X5282000Y-11264000I0J90000D01*
G01*
X5132000Y-11264000D02*
G75*
G03*
X5132000Y-11444000I0J-90000D01*
G01*
X5107000Y-12854000D02*
X5307000Y-13054000D01*
X5307000Y-12854000D02*
X5107000Y-13054000D01*
X5132000Y-13044000D02*
X5282000Y-13044000D01*
X5132000Y-12864000D02*
X5282000Y-12864000D01*
X5282000Y-13044000D02*
G75*
G03*
X5282000Y-12864000I0J90000D01*
G01*
X5132000Y-12864000D02*
G75*
G03*
X5132000Y-13044000I0J-90000D01*
G01*
X8307000Y-11254000D02*
X8507000Y-11454000D01*
X8507000Y-11254000D02*
X8307000Y-11454000D01*
X8332000Y-11444000D02*
X8482000Y-11444000D01*
X8332000Y-11264000D02*
X8482000Y-11264000D01*
X8482000Y-11444000D02*
G75*
G03*
X8482000Y-11264000I0J90000D01*
G01*
X8332000Y-11264000D02*
G75*
G03*
X8332000Y-11444000I0J-90000D01*
G01*
X8307000Y-12854000D02*
X8507000Y-13054000D01*
X8507000Y-12854000D02*
X8307000Y-13054000D01*
X8332000Y-13044000D02*
X8482000Y-13044000D01*
X8332000Y-12864000D02*
X8482000Y-12864000D01*
X8482000Y-13044000D02*
G75*
G03*
X8482000Y-12864000I0J90000D01*
G01*
X8332000Y-12864000D02*
G75*
G03*
X8332000Y-13044000I0J-90000D01*
G01*
X2660000Y-2500000D02*
G75*
G03*
X2660000Y-2500000I-160000J0D01*
G01*
X2660000Y-13500000D02*
G75*
G03*
X2660000Y-13500000I-160000J0D01*
G01*
X3734000Y-4064000D02*
G75*
G03*
X3734000Y-4064000I-160000J0D01*
G01*
X11660000Y-2500000D02*
G75*
G03*
X11660000Y-2500000I-160000J0D01*
G01*
X11660000Y-13500000D02*
G75*
G03*
X11660000Y-13500000I-160000J0D01*
G01*
D12*
X2315928Y-14565214D02*
X2315928Y-14265214D01*
X2387357Y-14265214D01*
X2430214Y-14279500D01*
X2458786Y-14308071D01*
X2473071Y-14336643D01*
X2487357Y-14393786D01*
X2487357Y-14436643D01*
X2473071Y-14493786D01*
X2458786Y-14522357D01*
X2430214Y-14550929D01*
X2387357Y-14565214D01*
X2315928Y-14565214D01*
X2615928Y-14565214D02*
X2615928Y-14365214D01*
X2615928Y-14422357D02*
X2630214Y-14393786D01*
X2644500Y-14379500D01*
X2673071Y-14365214D01*
X2701643Y-14365214D01*
X2801643Y-14565214D02*
X2801643Y-14365214D01*
X2801643Y-14265214D02*
X2787357Y-14279500D01*
X2801643Y-14293786D01*
X2815928Y-14279500D01*
X2801643Y-14265214D01*
X2801643Y-14293786D01*
X2987357Y-14565214D02*
X2958786Y-14550929D01*
X2944500Y-14522357D01*
X2944500Y-14265214D01*
X3144500Y-14565214D02*
X3115928Y-14550929D01*
X3101643Y-14522357D01*
X3101643Y-14265214D01*
X3487357Y-14565214D02*
X3487357Y-14265214D01*
X3587357Y-14479500D01*
X3687357Y-14265214D01*
X3687357Y-14565214D01*
X3958786Y-14565214D02*
X3958786Y-14408071D01*
X3944500Y-14379500D01*
X3915928Y-14365214D01*
X3858786Y-14365214D01*
X3830214Y-14379500D01*
X3958786Y-14550929D02*
X3930214Y-14565214D01*
X3858786Y-14565214D01*
X3830214Y-14550929D01*
X3815928Y-14522357D01*
X3815928Y-14493786D01*
X3830214Y-14465214D01*
X3858786Y-14450929D01*
X3930214Y-14450929D01*
X3958786Y-14436643D01*
X4101643Y-14365214D02*
X4101643Y-14665214D01*
X4101643Y-14379500D02*
X4130214Y-14365214D01*
X4187357Y-14365214D01*
X4215928Y-14379500D01*
X4230214Y-14393786D01*
X4244500Y-14422357D01*
X4244500Y-14508071D01*
X4230214Y-14536643D01*
X4215928Y-14550929D01*
X4187357Y-14565214D01*
X4130214Y-14565214D01*
X4101643Y-14550929D01*
X4373071Y-14536643D02*
X4387357Y-14550929D01*
X4373071Y-14565214D01*
X4358786Y-14550929D01*
X4373071Y-14536643D01*
X4373071Y-14565214D01*
X4373071Y-14379500D02*
X4387357Y-14393786D01*
X4373071Y-14408071D01*
X4358786Y-14393786D01*
X4373071Y-14379500D01*
X4373071Y-14408071D01*
X1829500Y-14959500D02*
X2029500Y-15159500D01*
X2029500Y-14959500D02*
X1829500Y-15159500D01*
X2301643Y-14923786D02*
X2315928Y-14909500D01*
X2344500Y-14895214D01*
X2415928Y-14895214D01*
X2444500Y-14909500D01*
X2458786Y-14923786D01*
X2473071Y-14952357D01*
X2473071Y-14980929D01*
X2458786Y-15023786D01*
X2287357Y-15195214D01*
X2473071Y-15195214D01*
X2601643Y-15166643D02*
X2615928Y-15180929D01*
X2601643Y-15195214D01*
X2587357Y-15180929D01*
X2601643Y-15166643D01*
X2601643Y-15195214D01*
X2801643Y-14895214D02*
X2830214Y-14895214D01*
X2858786Y-14909500D01*
X2873071Y-14923786D01*
X2887357Y-14952357D01*
X2901643Y-15009500D01*
X2901643Y-15080929D01*
X2887357Y-15138071D01*
X2873071Y-15166643D01*
X2858786Y-15180929D01*
X2830214Y-15195214D01*
X2801643Y-15195214D01*
X2773071Y-15180929D01*
X2758786Y-15166643D01*
X2744500Y-15138071D01*
X2730214Y-15080929D01*
X2730214Y-15009500D01*
X2744500Y-14952357D01*
X2758786Y-14923786D01*
X2773071Y-14909500D01*
X2801643Y-14895214D01*
X3087357Y-14895214D02*
X3115928Y-14895214D01*
X3144500Y-14909500D01*
X3158786Y-14923786D01*
X3173071Y-14952357D01*
X3187357Y-15009500D01*
X3187357Y-15080929D01*
X3173071Y-15138071D01*
X3158786Y-15166643D01*
X3144500Y-15180929D01*
X3115928Y-15195214D01*
X3087357Y-15195214D01*
X3058786Y-15180929D01*
X3044500Y-15166643D01*
X3030214Y-15138071D01*
X3015928Y-15080929D01*
X3015928Y-15009500D01*
X3030214Y-14952357D01*
X3044500Y-14923786D01*
X3058786Y-14909500D01*
X3087357Y-14895214D01*
X3373071Y-14895214D02*
X3401643Y-14895214D01*
X3430214Y-14909500D01*
X3444500Y-14923786D01*
X3458786Y-14952357D01*
X3473071Y-15009500D01*
X3473071Y-15080929D01*
X3458786Y-15138071D01*
X3444500Y-15166643D01*
X3430214Y-15180929D01*
X3401643Y-15195214D01*
X3373071Y-15195214D01*
X3344500Y-15180929D01*
X3330214Y-15166643D01*
X3315928Y-15138071D01*
X3301643Y-15080929D01*
X3301643Y-15009500D01*
X3315928Y-14952357D01*
X3330214Y-14923786D01*
X3344500Y-14909500D01*
X3373071Y-14895214D01*
X3601643Y-15195214D02*
X3601643Y-14995214D01*
X3601643Y-15023786D02*
X3615928Y-15009500D01*
X3644500Y-14995214D01*
X3687357Y-14995214D01*
X3715928Y-15009500D01*
X3730214Y-15038071D01*
X3730214Y-15195214D01*
X3730214Y-15038071D02*
X3744500Y-15009500D01*
X3773071Y-14995214D01*
X3815928Y-14995214D01*
X3844500Y-15009500D01*
X3858786Y-15038071D01*
X3858786Y-15195214D01*
X4001643Y-15195214D02*
X4001643Y-14995214D01*
X4001643Y-15023786D02*
X4015928Y-15009500D01*
X4044500Y-14995214D01*
X4087357Y-14995214D01*
X4115928Y-15009500D01*
X4130214Y-15038071D01*
X4130214Y-15195214D01*
X4130214Y-15038071D02*
X4144500Y-15009500D01*
X4173071Y-14995214D01*
X4215928Y-14995214D01*
X4244500Y-15009500D01*
X4258786Y-15038071D01*
X4258786Y-15195214D01*
X4844500Y-14880929D02*
X4587357Y-15266643D01*
X5230214Y-14895214D02*
X5258786Y-14895214D01*
X5287357Y-14909500D01*
X5301643Y-14923786D01*
X5315928Y-14952357D01*
X5330214Y-15009500D01*
X5330214Y-15080929D01*
X5315928Y-15138071D01*
X5301643Y-15166643D01*
X5287357Y-15180929D01*
X5258786Y-15195214D01*
X5230214Y-15195214D01*
X5201643Y-15180929D01*
X5187357Y-15166643D01*
X5173071Y-15138071D01*
X5158786Y-15080929D01*
X5158786Y-15009500D01*
X5173071Y-14952357D01*
X5187357Y-14923786D01*
X5201643Y-14909500D01*
X5230214Y-14895214D01*
X5458786Y-15166643D02*
X5473071Y-15180929D01*
X5458786Y-15195214D01*
X5444500Y-15180929D01*
X5458786Y-15166643D01*
X5458786Y-15195214D01*
X5658786Y-14895214D02*
X5687357Y-14895214D01*
X5715928Y-14909500D01*
X5730214Y-14923786D01*
X5744500Y-14952357D01*
X5758786Y-15009500D01*
X5758786Y-15080929D01*
X5744500Y-15138071D01*
X5730214Y-15166643D01*
X5715928Y-15180929D01*
X5687357Y-15195214D01*
X5658786Y-15195214D01*
X5630214Y-15180929D01*
X5615928Y-15166643D01*
X5601643Y-15138071D01*
X5587357Y-15080929D01*
X5587357Y-15009500D01*
X5601643Y-14952357D01*
X5615928Y-14923786D01*
X5630214Y-14909500D01*
X5658786Y-14895214D01*
X5858786Y-14895214D02*
X6058786Y-14895214D01*
X5930214Y-15195214D01*
X6215928Y-15023786D02*
X6187357Y-15009500D01*
X6173071Y-14995214D01*
X6158786Y-14966643D01*
X6158786Y-14952357D01*
X6173071Y-14923786D01*
X6187357Y-14909500D01*
X6215928Y-14895214D01*
X6273071Y-14895214D01*
X6301643Y-14909500D01*
X6315928Y-14923786D01*
X6330214Y-14952357D01*
X6330214Y-14966643D01*
X6315928Y-14995214D01*
X6301643Y-15009500D01*
X6273071Y-15023786D01*
X6215928Y-15023786D01*
X6187357Y-15038071D01*
X6173071Y-15052357D01*
X6158786Y-15080929D01*
X6158786Y-15138071D01*
X6173071Y-15166643D01*
X6187357Y-15180929D01*
X6215928Y-15195214D01*
X6273071Y-15195214D01*
X6301643Y-15180929D01*
X6315928Y-15166643D01*
X6330214Y-15138071D01*
X6330214Y-15080929D01*
X6315928Y-15052357D01*
X6301643Y-15038071D01*
X6273071Y-15023786D01*
X6430214Y-14895214D02*
X6630214Y-14895214D01*
X6501643Y-15195214D01*
X6730214Y-14895214D02*
X6730214Y-14952357D01*
X6844500Y-14895214D02*
X6844500Y-14952357D01*
X7287357Y-15309500D02*
X7273071Y-15295214D01*
X7244500Y-15252357D01*
X7230214Y-15223786D01*
X7215928Y-15180929D01*
X7201643Y-15109500D01*
X7201643Y-15052357D01*
X7215928Y-14980929D01*
X7230214Y-14938071D01*
X7244500Y-14909500D01*
X7273071Y-14866643D01*
X7287357Y-14852357D01*
X7458786Y-14895214D02*
X7487357Y-14895214D01*
X7515928Y-14909500D01*
X7530214Y-14923786D01*
X7544500Y-14952357D01*
X7558786Y-15009500D01*
X7558786Y-15080929D01*
X7544500Y-15138071D01*
X7530214Y-15166643D01*
X7515928Y-15180929D01*
X7487357Y-15195214D01*
X7458786Y-15195214D01*
X7430214Y-15180929D01*
X7415928Y-15166643D01*
X7401643Y-15138071D01*
X7387357Y-15080929D01*
X7387357Y-15009500D01*
X7401643Y-14952357D01*
X7415928Y-14923786D01*
X7430214Y-14909500D01*
X7458786Y-14895214D01*
X7915928Y-15195214D02*
X7915928Y-14895214D01*
X8044500Y-15195214D02*
X8044500Y-15038071D01*
X8030214Y-15009500D01*
X8001643Y-14995214D01*
X7958786Y-14995214D01*
X7930214Y-15009500D01*
X7915928Y-15023786D01*
X8230214Y-15195214D02*
X8201643Y-15180929D01*
X8187357Y-15166643D01*
X8173071Y-15138071D01*
X8173071Y-15052357D01*
X8187357Y-15023786D01*
X8201643Y-15009500D01*
X8230214Y-14995214D01*
X8273071Y-14995214D01*
X8301643Y-15009500D01*
X8315928Y-15023786D01*
X8330214Y-15052357D01*
X8330214Y-15138071D01*
X8315928Y-15166643D01*
X8301643Y-15180929D01*
X8273071Y-15195214D01*
X8230214Y-15195214D01*
X8501643Y-15195214D02*
X8473071Y-15180929D01*
X8458786Y-15152357D01*
X8458786Y-14895214D01*
X8730214Y-15180929D02*
X8701643Y-15195214D01*
X8644500Y-15195214D01*
X8615928Y-15180929D01*
X8601643Y-15152357D01*
X8601643Y-15038071D01*
X8615928Y-15009500D01*
X8644500Y-14995214D01*
X8701643Y-14995214D01*
X8730214Y-15009500D01*
X8744500Y-15038071D01*
X8744500Y-15066643D01*
X8601643Y-15095214D01*
X8858786Y-15180929D02*
X8887357Y-15195214D01*
X8944500Y-15195214D01*
X8973071Y-15180929D01*
X8987357Y-15152357D01*
X8987357Y-15138071D01*
X8973071Y-15109500D01*
X8944500Y-15095214D01*
X8901643Y-15095214D01*
X8873071Y-15080929D01*
X8858786Y-15052357D01*
X8858786Y-15038071D01*
X8873071Y-15009500D01*
X8901643Y-14995214D01*
X8944500Y-14995214D01*
X8973071Y-15009500D01*
X9344500Y-15080929D02*
X9573071Y-15080929D01*
X9458786Y-15195214D02*
X9458786Y-14966643D01*
X10073071Y-14995214D02*
X10073071Y-15195214D01*
X10001643Y-14880929D02*
X9930214Y-15095214D01*
X10115928Y-15095214D01*
X10444500Y-15180929D02*
X10473071Y-15195214D01*
X10530214Y-15195214D01*
X10558786Y-15180929D01*
X10573071Y-15152357D01*
X10573071Y-15138071D01*
X10558786Y-15109500D01*
X10530214Y-15095214D01*
X10487357Y-15095214D01*
X10458786Y-15080929D01*
X10444500Y-15052357D01*
X10444500Y-15038071D01*
X10458786Y-15009500D01*
X10487357Y-14995214D01*
X10530214Y-14995214D01*
X10558786Y-15009500D01*
X10744500Y-15195214D02*
X10715928Y-15180929D01*
X10701643Y-15152357D01*
X10701643Y-14895214D01*
X10901643Y-15195214D02*
X10873071Y-15180929D01*
X10858786Y-15166643D01*
X10844500Y-15138071D01*
X10844500Y-15052357D01*
X10858786Y-15023786D01*
X10873071Y-15009500D01*
X10901643Y-14995214D01*
X10944500Y-14995214D01*
X10973071Y-15009500D01*
X10987357Y-15023786D01*
X11001643Y-15052357D01*
X11001643Y-15138071D01*
X10987357Y-15166643D01*
X10973071Y-15180929D01*
X10944500Y-15195214D01*
X10901643Y-15195214D01*
X11087357Y-14995214D02*
X11201643Y-14995214D01*
X11130214Y-14895214D02*
X11130214Y-15152357D01*
X11144500Y-15180929D01*
X11173071Y-15195214D01*
X11201643Y-15195214D01*
X11287357Y-15180929D02*
X11315928Y-15195214D01*
X11373071Y-15195214D01*
X11401643Y-15180929D01*
X11415928Y-15152357D01*
X11415928Y-15138071D01*
X11401643Y-15109500D01*
X11373071Y-15095214D01*
X11330214Y-15095214D01*
X11301643Y-15080929D01*
X11287357Y-15052357D01*
X11287357Y-15038071D01*
X11301643Y-15009500D01*
X11330214Y-14995214D01*
X11373071Y-14995214D01*
X11401643Y-15009500D01*
X11515928Y-15309500D02*
X11530214Y-15295214D01*
X11558786Y-15252357D01*
X11573071Y-15223786D01*
X11587357Y-15180929D01*
X11601643Y-15109500D01*
X11601643Y-15052357D01*
X11587357Y-14980929D01*
X11573071Y-14938071D01*
X11558786Y-14909500D01*
X11530214Y-14866643D01*
X11515928Y-14852357D01*
X12058786Y-15309500D02*
X12044500Y-15295214D01*
X12015928Y-15252357D01*
X12001643Y-15223786D01*
X11987357Y-15180929D01*
X11973071Y-15109500D01*
X11973071Y-15052357D01*
X11987357Y-14980929D01*
X12001643Y-14938071D01*
X12015928Y-14909500D01*
X12044500Y-14866643D01*
X12058786Y-14852357D01*
X12173071Y-14995214D02*
X12173071Y-15195214D01*
X12173071Y-15023786D02*
X12187357Y-15009500D01*
X12215928Y-14995214D01*
X12258786Y-14995214D01*
X12287357Y-15009500D01*
X12301643Y-15038071D01*
X12301643Y-15195214D01*
X12487357Y-15195214D02*
X12458786Y-15180929D01*
X12444500Y-15166643D01*
X12430214Y-15138071D01*
X12430214Y-15052357D01*
X12444500Y-15023786D01*
X12458786Y-15009500D01*
X12487357Y-14995214D01*
X12530214Y-14995214D01*
X12558786Y-15009500D01*
X12573071Y-15023786D01*
X12587357Y-15052357D01*
X12587357Y-15138071D01*
X12573071Y-15166643D01*
X12558786Y-15180929D01*
X12530214Y-15195214D01*
X12487357Y-15195214D01*
X12673071Y-14995214D02*
X12787357Y-14995214D01*
X12715928Y-14895214D02*
X12715928Y-15152357D01*
X12730214Y-15180929D01*
X12758786Y-15195214D01*
X12787357Y-15195214D01*
X13115928Y-14995214D02*
X13115928Y-15295214D01*
X13115928Y-15009500D02*
X13144500Y-14995214D01*
X13201643Y-14995214D01*
X13230214Y-15009500D01*
X13244500Y-15023786D01*
X13258786Y-15052357D01*
X13258786Y-15138071D01*
X13244500Y-15166643D01*
X13230214Y-15180929D01*
X13201643Y-15195214D01*
X13144500Y-15195214D01*
X13115928Y-15180929D01*
X13430214Y-15195214D02*
X13401643Y-15180929D01*
X13387357Y-15152357D01*
X13387357Y-14895214D01*
X13673071Y-15195214D02*
X13673071Y-15038071D01*
X13658786Y-15009500D01*
X13630214Y-14995214D01*
X13573071Y-14995214D01*
X13544500Y-15009500D01*
X13673071Y-15180929D02*
X13644500Y-15195214D01*
X13573071Y-15195214D01*
X13544500Y-15180929D01*
X13530214Y-15152357D01*
X13530214Y-15123786D01*
X13544500Y-15095214D01*
X13573071Y-15080929D01*
X13644500Y-15080929D01*
X13673071Y-15066643D01*
X13773071Y-14995214D02*
X13887357Y-14995214D01*
X13815928Y-14895214D02*
X13815928Y-15152357D01*
X13830214Y-15180929D01*
X13858786Y-15195214D01*
X13887357Y-15195214D01*
X14101643Y-15180929D02*
X14073071Y-15195214D01*
X14015928Y-15195214D01*
X13987357Y-15180929D01*
X13973071Y-15152357D01*
X13973071Y-15038071D01*
X13987357Y-15009500D01*
X14015928Y-14995214D01*
X14073071Y-14995214D01*
X14101643Y-15009500D01*
X14115928Y-15038071D01*
X14115928Y-15066643D01*
X13973071Y-15095214D01*
X14373071Y-15195214D02*
X14373071Y-14895214D01*
X14373071Y-15180929D02*
X14344500Y-15195214D01*
X14287357Y-15195214D01*
X14258786Y-15180929D01*
X14244500Y-15166643D01*
X14230214Y-15138071D01*
X14230214Y-15052357D01*
X14244500Y-15023786D01*
X14258786Y-15009500D01*
X14287357Y-14995214D01*
X14344500Y-14995214D01*
X14373071Y-15009500D01*
X14487357Y-15309500D02*
X14501643Y-15295214D01*
X14530214Y-15252357D01*
X14544500Y-15223786D01*
X14558786Y-15180929D01*
X14573071Y-15109500D01*
X14573071Y-15052357D01*
X14558786Y-14980929D01*
X14544500Y-14938071D01*
X14530214Y-14909500D01*
X14501643Y-14866643D01*
X14487357Y-14852357D01*
X2029500Y-15455500D02*
G75*
G03*
X2029500Y-15455500I-160000J0D01*
G01*
X2287357Y-15291214D02*
X2473071Y-15291214D01*
X2373071Y-15405500D01*
X2415928Y-15405500D01*
X2444500Y-15419786D01*
X2458786Y-15434071D01*
X2473071Y-15462643D01*
X2473071Y-15534071D01*
X2458786Y-15562643D01*
X2444500Y-15576929D01*
X2415928Y-15591214D01*
X2330214Y-15591214D01*
X2301643Y-15576929D01*
X2287357Y-15562643D01*
X2601643Y-15562643D02*
X2615928Y-15576929D01*
X2601643Y-15591214D01*
X2587357Y-15576929D01*
X2601643Y-15562643D01*
X2601643Y-15591214D01*
X2730214Y-15319786D02*
X2744500Y-15305500D01*
X2773071Y-15291214D01*
X2844500Y-15291214D01*
X2873071Y-15305500D01*
X2887357Y-15319786D01*
X2901643Y-15348357D01*
X2901643Y-15376929D01*
X2887357Y-15419786D01*
X2715928Y-15591214D01*
X2901643Y-15591214D01*
X3087357Y-15291214D02*
X3115928Y-15291214D01*
X3144500Y-15305500D01*
X3158786Y-15319786D01*
X3173071Y-15348357D01*
X3187357Y-15405500D01*
X3187357Y-15476929D01*
X3173071Y-15534071D01*
X3158786Y-15562643D01*
X3144500Y-15576929D01*
X3115928Y-15591214D01*
X3087357Y-15591214D01*
X3058786Y-15576929D01*
X3044500Y-15562643D01*
X3030214Y-15534071D01*
X3015928Y-15476929D01*
X3015928Y-15405500D01*
X3030214Y-15348357D01*
X3044500Y-15319786D01*
X3058786Y-15305500D01*
X3087357Y-15291214D01*
X3373071Y-15291214D02*
X3401643Y-15291214D01*
X3430214Y-15305500D01*
X3444500Y-15319786D01*
X3458786Y-15348357D01*
X3473071Y-15405500D01*
X3473071Y-15476929D01*
X3458786Y-15534071D01*
X3444500Y-15562643D01*
X3430214Y-15576929D01*
X3401643Y-15591214D01*
X3373071Y-15591214D01*
X3344500Y-15576929D01*
X3330214Y-15562643D01*
X3315928Y-15534071D01*
X3301643Y-15476929D01*
X3301643Y-15405500D01*
X3315928Y-15348357D01*
X3330214Y-15319786D01*
X3344500Y-15305500D01*
X3373071Y-15291214D01*
X3601643Y-15591214D02*
X3601643Y-15391214D01*
X3601643Y-15419786D02*
X3615928Y-15405500D01*
X3644500Y-15391214D01*
X3687357Y-15391214D01*
X3715928Y-15405500D01*
X3730214Y-15434071D01*
X3730214Y-15591214D01*
X3730214Y-15434071D02*
X3744500Y-15405500D01*
X3773071Y-15391214D01*
X3815928Y-15391214D01*
X3844500Y-15405500D01*
X3858786Y-15434071D01*
X3858786Y-15591214D01*
X4001643Y-15591214D02*
X4001643Y-15391214D01*
X4001643Y-15419786D02*
X4015928Y-15405500D01*
X4044500Y-15391214D01*
X4087357Y-15391214D01*
X4115928Y-15405500D01*
X4130214Y-15434071D01*
X4130214Y-15591214D01*
X4130214Y-15434071D02*
X4144500Y-15405500D01*
X4173071Y-15391214D01*
X4215928Y-15391214D01*
X4244500Y-15405500D01*
X4258786Y-15434071D01*
X4258786Y-15591214D01*
X4844500Y-15276929D02*
X4587357Y-15662643D01*
X5230214Y-15291214D02*
X5258786Y-15291214D01*
X5287357Y-15305500D01*
X5301643Y-15319786D01*
X5315928Y-15348357D01*
X5330214Y-15405500D01*
X5330214Y-15476929D01*
X5315928Y-15534071D01*
X5301643Y-15562643D01*
X5287357Y-15576929D01*
X5258786Y-15591214D01*
X5230214Y-15591214D01*
X5201643Y-15576929D01*
X5187357Y-15562643D01*
X5173071Y-15534071D01*
X5158786Y-15476929D01*
X5158786Y-15405500D01*
X5173071Y-15348357D01*
X5187357Y-15319786D01*
X5201643Y-15305500D01*
X5230214Y-15291214D01*
X5458786Y-15562643D02*
X5473071Y-15576929D01*
X5458786Y-15591214D01*
X5444500Y-15576929D01*
X5458786Y-15562643D01*
X5458786Y-15591214D01*
X5758786Y-15591214D02*
X5587357Y-15591214D01*
X5673071Y-15591214D02*
X5673071Y-15291214D01*
X5644500Y-15334071D01*
X5615928Y-15362643D01*
X5587357Y-15376929D01*
X5873071Y-15319786D02*
X5887357Y-15305500D01*
X5915928Y-15291214D01*
X5987357Y-15291214D01*
X6015928Y-15305500D01*
X6030214Y-15319786D01*
X6044500Y-15348357D01*
X6044500Y-15376929D01*
X6030214Y-15419786D01*
X5858786Y-15591214D01*
X6044500Y-15591214D01*
X6301643Y-15291214D02*
X6244500Y-15291214D01*
X6215928Y-15305500D01*
X6201643Y-15319786D01*
X6173071Y-15362643D01*
X6158786Y-15419786D01*
X6158786Y-15534071D01*
X6173071Y-15562643D01*
X6187357Y-15576929D01*
X6215928Y-15591214D01*
X6273071Y-15591214D01*
X6301643Y-15576929D01*
X6315928Y-15562643D01*
X6330214Y-15534071D01*
X6330214Y-15462643D01*
X6315928Y-15434071D01*
X6301643Y-15419786D01*
X6273071Y-15405500D01*
X6215928Y-15405500D01*
X6187357Y-15419786D01*
X6173071Y-15434071D01*
X6158786Y-15462643D01*
X6515928Y-15291214D02*
X6544500Y-15291214D01*
X6573071Y-15305500D01*
X6587357Y-15319786D01*
X6601643Y-15348357D01*
X6615928Y-15405500D01*
X6615928Y-15476929D01*
X6601643Y-15534071D01*
X6587357Y-15562643D01*
X6573071Y-15576929D01*
X6544500Y-15591214D01*
X6515928Y-15591214D01*
X6487357Y-15576929D01*
X6473071Y-15562643D01*
X6458786Y-15534071D01*
X6444500Y-15476929D01*
X6444500Y-15405500D01*
X6458786Y-15348357D01*
X6473071Y-15319786D01*
X6487357Y-15305500D01*
X6515928Y-15291214D01*
X6730214Y-15291214D02*
X6730214Y-15348357D01*
X6844500Y-15291214D02*
X6844500Y-15348357D01*
X7287357Y-15705500D02*
X7273071Y-15691214D01*
X7244500Y-15648357D01*
X7230214Y-15619786D01*
X7215928Y-15576929D01*
X7201643Y-15505500D01*
X7201643Y-15448357D01*
X7215928Y-15376929D01*
X7230214Y-15334071D01*
X7244500Y-15305500D01*
X7273071Y-15262643D01*
X7287357Y-15248357D01*
X7544500Y-15291214D02*
X7401643Y-15291214D01*
X7387357Y-15434071D01*
X7401643Y-15419786D01*
X7430214Y-15405500D01*
X7501643Y-15405500D01*
X7530214Y-15419786D01*
X7544500Y-15434071D01*
X7558786Y-15462643D01*
X7558786Y-15534071D01*
X7544500Y-15562643D01*
X7530214Y-15576929D01*
X7501643Y-15591214D01*
X7430214Y-15591214D01*
X7401643Y-15576929D01*
X7387357Y-15562643D01*
X7915928Y-15591214D02*
X7915928Y-15291214D01*
X8044500Y-15591214D02*
X8044500Y-15434071D01*
X8030214Y-15405500D01*
X8001643Y-15391214D01*
X7958786Y-15391214D01*
X7930214Y-15405500D01*
X7915928Y-15419786D01*
X8230214Y-15591214D02*
X8201643Y-15576929D01*
X8187357Y-15562643D01*
X8173071Y-15534071D01*
X8173071Y-15448357D01*
X8187357Y-15419786D01*
X8201643Y-15405500D01*
X8230214Y-15391214D01*
X8273071Y-15391214D01*
X8301643Y-15405500D01*
X8315928Y-15419786D01*
X8330214Y-15448357D01*
X8330214Y-15534071D01*
X8315928Y-15562643D01*
X8301643Y-15576929D01*
X8273071Y-15591214D01*
X8230214Y-15591214D01*
X8501643Y-15591214D02*
X8473071Y-15576929D01*
X8458786Y-15548357D01*
X8458786Y-15291214D01*
X8730214Y-15576929D02*
X8701643Y-15591214D01*
X8644500Y-15591214D01*
X8615928Y-15576929D01*
X8601643Y-15548357D01*
X8601643Y-15434071D01*
X8615928Y-15405500D01*
X8644500Y-15391214D01*
X8701643Y-15391214D01*
X8730214Y-15405500D01*
X8744500Y-15434071D01*
X8744500Y-15462643D01*
X8601643Y-15491214D01*
X8858786Y-15576929D02*
X8887357Y-15591214D01*
X8944500Y-15591214D01*
X8973071Y-15576929D01*
X8987357Y-15548357D01*
X8987357Y-15534071D01*
X8973071Y-15505500D01*
X8944500Y-15491214D01*
X8901643Y-15491214D01*
X8873071Y-15476929D01*
X8858786Y-15448357D01*
X8858786Y-15434071D01*
X8873071Y-15405500D01*
X8901643Y-15391214D01*
X8944500Y-15391214D01*
X8973071Y-15405500D01*
X9087357Y-15705500D02*
X9101643Y-15691214D01*
X9130214Y-15648357D01*
X9144500Y-15619786D01*
X9158786Y-15576929D01*
X9173071Y-15505500D01*
X9173071Y-15448357D01*
X9158786Y-15376929D01*
X9144500Y-15334071D01*
X9130214Y-15305500D01*
X9101643Y-15262643D01*
X9087357Y-15248357D01*
X9630214Y-15705500D02*
X9615928Y-15691214D01*
X9587357Y-15648357D01*
X9573071Y-15619786D01*
X9558786Y-15576929D01*
X9544500Y-15505500D01*
X9544500Y-15448357D01*
X9558786Y-15376929D01*
X9573071Y-15334071D01*
X9587357Y-15305500D01*
X9615928Y-15262643D01*
X9630214Y-15248357D01*
X9744500Y-15391214D02*
X9744500Y-15591214D01*
X9744500Y-15419786D02*
X9758786Y-15405500D01*
X9787357Y-15391214D01*
X9830214Y-15391214D01*
X9858786Y-15405500D01*
X9873071Y-15434071D01*
X9873071Y-15591214D01*
X10058786Y-15591214D02*
X10030214Y-15576929D01*
X10015928Y-15562643D01*
X10001643Y-15534071D01*
X10001643Y-15448357D01*
X10015928Y-15419786D01*
X10030214Y-15405500D01*
X10058786Y-15391214D01*
X10101643Y-15391214D01*
X10130214Y-15405500D01*
X10144500Y-15419786D01*
X10158786Y-15448357D01*
X10158786Y-15534071D01*
X10144500Y-15562643D01*
X10130214Y-15576929D01*
X10101643Y-15591214D01*
X10058786Y-15591214D01*
X10244500Y-15391214D02*
X10358786Y-15391214D01*
X10287357Y-15291214D02*
X10287357Y-15548357D01*
X10301643Y-15576929D01*
X10330214Y-15591214D01*
X10358786Y-15591214D01*
X10687357Y-15391214D02*
X10687357Y-15691214D01*
X10687357Y-15405500D02*
X10715928Y-15391214D01*
X10773071Y-15391214D01*
X10801643Y-15405500D01*
X10815928Y-15419786D01*
X10830214Y-15448357D01*
X10830214Y-15534071D01*
X10815928Y-15562643D01*
X10801643Y-15576929D01*
X10773071Y-15591214D01*
X10715928Y-15591214D01*
X10687357Y-15576929D01*
X11001643Y-15591214D02*
X10973071Y-15576929D01*
X10958786Y-15548357D01*
X10958786Y-15291214D01*
X11244500Y-15591214D02*
X11244500Y-15434071D01*
X11230214Y-15405500D01*
X11201643Y-15391214D01*
X11144500Y-15391214D01*
X11115928Y-15405500D01*
X11244500Y-15576929D02*
X11215928Y-15591214D01*
X11144500Y-15591214D01*
X11115928Y-15576929D01*
X11101643Y-15548357D01*
X11101643Y-15519786D01*
X11115928Y-15491214D01*
X11144500Y-15476929D01*
X11215928Y-15476929D01*
X11244500Y-15462643D01*
X11344500Y-15391214D02*
X11458786Y-15391214D01*
X11387357Y-15291214D02*
X11387357Y-15548357D01*
X11401643Y-15576929D01*
X11430214Y-15591214D01*
X11458786Y-15591214D01*
X11673071Y-15576929D02*
X11644500Y-15591214D01*
X11587357Y-15591214D01*
X11558786Y-15576929D01*
X11544500Y-15548357D01*
X11544500Y-15434071D01*
X11558786Y-15405500D01*
X11587357Y-15391214D01*
X11644500Y-15391214D01*
X11673071Y-15405500D01*
X11687357Y-15434071D01*
X11687357Y-15462643D01*
X11544500Y-15491214D01*
X11944500Y-15591214D02*
X11944500Y-15291214D01*
X11944500Y-15576929D02*
X11915928Y-15591214D01*
X11858786Y-15591214D01*
X11830214Y-15576929D01*
X11815928Y-15562643D01*
X11801643Y-15534071D01*
X11801643Y-15448357D01*
X11815928Y-15419786D01*
X11830214Y-15405500D01*
X11858786Y-15391214D01*
X11915928Y-15391214D01*
X11944500Y-15405500D01*
X12058786Y-15705500D02*
X12073071Y-15691214D01*
X12101643Y-15648357D01*
X12115928Y-15619786D01*
X12130214Y-15576929D01*
X12144500Y-15505500D01*
X12144500Y-15448357D01*
X12130214Y-15376929D01*
X12115928Y-15334071D01*
X12101643Y-15305500D01*
X12073071Y-15262643D01*
X12058786Y-15248357D01*
M02*
