%TF.GenerationSoftware,KiCad,Pcbnew,5.1.12-84ad8e8a86~92~ubuntu20.04.1*%
%TF.CreationDate,2021-11-20T18:36:58+00:00*%
%TF.ProjectId,single,73696e67-6c65-42e6-9b69-6361645f7063,rev?*%
%TF.SameCoordinates,Original*%
%TF.FileFunction,Copper,L1,Top*%
%TF.FilePolarity,Positive*%
%FSLAX46Y46*%
G04 Gerber Fmt 4.6, Leading zero omitted, Abs format (unit mm)*
G04 Created by KiCad (PCBNEW 5.1.12-84ad8e8a86~92~ubuntu20.04.1) date 2021-11-20 18:36:58*
%MOMM*%
%LPD*%
G01*
G04 APERTURE LIST*
%TA.AperFunction,ComponentPad*%
%ADD10C,1.524000*%
%TD*%
%TA.AperFunction,ComponentPad*%
%ADD11R,1.524000X1.524000*%
%TD*%
%TA.AperFunction,ComponentPad*%
%ADD12C,3.500000*%
%TD*%
%TA.AperFunction,ComponentPad*%
%ADD13O,1.600000X1.600000*%
%TD*%
%TA.AperFunction,ComponentPad*%
%ADD14C,1.600000*%
%TD*%
%TA.AperFunction,ComponentPad*%
%ADD15C,1.400000*%
%TD*%
%TA.AperFunction,ComponentPad*%
%ADD16R,1.400000X1.400000*%
%TD*%
%TA.AperFunction,ComponentPad*%
%ADD17C,3.200000*%
%TD*%
%TA.AperFunction,ComponentPad*%
%ADD18C,1.900000*%
%TD*%
%TA.AperFunction,ComponentPad*%
%ADD19C,1.800000*%
%TD*%
%TA.AperFunction,ComponentPad*%
%ADD20C,2.500000*%
%TD*%
%TA.AperFunction,ComponentPad*%
%ADD21C,3.000000*%
%TD*%
%TA.AperFunction,ComponentPad*%
%ADD22R,3.000000X3.000000*%
%TD*%
%TA.AperFunction,ComponentPad*%
%ADD23R,1.600000X1.600000*%
%TD*%
%TA.AperFunction,ComponentPad*%
%ADD24R,3.500000X4.500000*%
%TD*%
%TA.AperFunction,ComponentPad*%
%ADD25C,1.200000*%
%TD*%
%TA.AperFunction,ComponentPad*%
%ADD26R,1.200000X1.200000*%
%TD*%
%TA.AperFunction,SMDPad,CuDef*%
%ADD27C,4.000000*%
%TD*%
%TA.AperFunction,ComponentPad*%
%ADD28O,1.905000X2.000000*%
%TD*%
%TA.AperFunction,ComponentPad*%
%ADD29R,1.905000X2.000000*%
%TD*%
%TA.AperFunction,Conductor*%
%ADD30C,0.500000*%
%TD*%
%TA.AperFunction,Conductor*%
%ADD31C,2.000000*%
%TD*%
%TA.AperFunction,Conductor*%
%ADD32C,5.000000*%
%TD*%
%TA.AperFunction,Conductor*%
%ADD33C,7.000000*%
%TD*%
%TA.AperFunction,Conductor*%
%ADD34C,3.000000*%
%TD*%
G04 APERTURE END LIST*
D10*
%TO.P,USB4,4*%
%TO.N,GND*%
X109920000Y-56890000D03*
%TO.P,USB4,3*%
%TO.N,Net-(USB4-Pad3)*%
X109920000Y-59390000D03*
%TO.P,USB4,2*%
%TO.N,Net-(USB4-Pad2)*%
X109920000Y-61390000D03*
D11*
%TO.P,USB4,1*%
%TO.N,5V*%
X109920000Y-63890000D03*
D12*
%TO.P,USB4,5*%
%TO.N,GND*%
X112630000Y-66960000D03*
X112630000Y-53820000D03*
%TD*%
D13*
%TO.P,R2,2*%
%TO.N,Net-(Convert_5V1-Pad6)*%
X88900000Y-67310000D03*
D14*
%TO.P,R2,1*%
%TO.N,GND*%
X88900000Y-77470000D03*
%TD*%
D15*
%TO.P,FAN_12V1,2*%
%TO.N,GND*%
X43070000Y-123540000D03*
D16*
%TO.P,FAN_12V1,1*%
%TO.N,12V*%
X43070000Y-121540000D03*
%TD*%
D17*
%TO.P,F1,1*%
%TO.N,Net-(F1-Pad1)*%
X46990000Y-40640000D03*
%TO.P,F1,2*%
%TO.N,Net-(F1-Pad2)*%
X24490000Y-40640000D03*
%TD*%
D18*
%TO.P,Convert_5V1,34*%
%TO.N,Net-(Convert_5V1-Pad34)*%
X54610000Y-63490000D03*
%TO.P,Convert_5V1,33*%
%TO.N,Net-(Convert_5V1-Pad33)*%
X78710000Y-76290000D03*
D19*
%TO.P,Convert_5V1,32*%
%TO.N,Net-(Convert_5V1-Pad32)*%
X74910000Y-76290000D03*
D20*
%TO.P,Convert_5V1,8*%
%TO.N,5V*%
X82510000Y-59690000D03*
D18*
%TO.P,Convert_5V1,7*%
X82510000Y-63490000D03*
%TO.P,Convert_5V1,6*%
%TO.N,Net-(Convert_5V1-Pad6)*%
X82510000Y-67290000D03*
%TO.P,Convert_5V1,5*%
%TO.N,Net-(Convert_5V1-Pad5)*%
X82510000Y-71090000D03*
D20*
%TO.P,Convert_5V1,4*%
%TO.N,GND*%
X82510000Y-74890000D03*
D18*
%TO.P,Convert_5V1,3*%
X54610000Y-74890000D03*
%TO.P,Convert_5V1,2*%
X54610000Y-67290000D03*
%TO.P,Convert_5V1,1*%
%TO.N,24V*%
X54610000Y-59690000D03*
%TD*%
D10*
%TO.P,USB5,4*%
%TO.N,GND*%
X109920000Y-36890000D03*
%TO.P,USB5,3*%
%TO.N,Net-(USB5-Pad3)*%
X109920000Y-39390000D03*
%TO.P,USB5,2*%
%TO.N,Net-(USB5-Pad2)*%
X109920000Y-41390000D03*
D11*
%TO.P,USB5,1*%
%TO.N,5V*%
X109920000Y-43890000D03*
D12*
%TO.P,USB5,5*%
%TO.N,GND*%
X112630000Y-46960000D03*
X112630000Y-33820000D03*
%TD*%
D10*
%TO.P,USB1,4*%
%TO.N,GND*%
X109920000Y-116890000D03*
%TO.P,USB1,3*%
%TO.N,Net-(USB1-Pad3)*%
X109920000Y-119390000D03*
%TO.P,USB1,2*%
%TO.N,Net-(USB1-Pad2)*%
X109920000Y-121390000D03*
D11*
%TO.P,USB1,1*%
%TO.N,5V*%
X109920000Y-123890000D03*
D12*
%TO.P,USB1,5*%
%TO.N,GND*%
X112630000Y-126960000D03*
X112630000Y-113820000D03*
%TD*%
D21*
%TO.P,OUT_5V1,2*%
%TO.N,GND*%
X97790000Y-134620000D03*
D22*
%TO.P,OUT_5V1,1*%
%TO.N,5V*%
X102870000Y-134620000D03*
%TD*%
D14*
%TO.P,C3,2*%
%TO.N,GND*%
X93980000Y-62190000D03*
D23*
%TO.P,C3,1*%
%TO.N,5V*%
X93980000Y-59690000D03*
%TD*%
D21*
%TO.P,OUT_12V1,2*%
%TO.N,GND*%
X34290000Y-134620000D03*
D22*
%TO.P,OUT_12V1,1*%
%TO.N,12V*%
X39370000Y-134620000D03*
%TD*%
D14*
%TO.P,C6,2*%
%TO.N,GND*%
X41910000Y-102910000D03*
D23*
%TO.P,C6,1*%
%TO.N,12V*%
X41910000Y-105410000D03*
%TD*%
D21*
%TO.P,IN_24V+1,2*%
%TO.N,Net-(F1-Pad2)*%
X48260000Y-25400000D03*
D22*
%TO.P,IN_24V+1,1*%
X43180000Y-25400000D03*
%TD*%
%TO.P,DC2,2*%
%TO.N,Net-(DC2-Pad2)*%
%TA.AperFunction,ComponentPad*%
G36*
G01*
X25650000Y-112225000D02*
X25650000Y-110475000D01*
G75*
G02*
X26525000Y-109600000I875000J0D01*
G01*
X28775000Y-109600000D01*
G75*
G02*
X29650000Y-110475000I0J-875000D01*
G01*
X29650000Y-112225000D01*
G75*
G02*
X28775000Y-113100000I-875000J0D01*
G01*
X26525000Y-113100000D01*
G75*
G02*
X25650000Y-112225000I0J875000D01*
G01*
G37*
%TD.AperFunction*%
%TO.P,DC2,3*%
%TO.N,GND*%
%TA.AperFunction,ComponentPad*%
G36*
G01*
X23300000Y-107850000D02*
X23300000Y-104850000D01*
G75*
G02*
X24050000Y-104100000I750000J0D01*
G01*
X25550000Y-104100000D01*
G75*
G02*
X26300000Y-104850000I0J-750000D01*
G01*
X26300000Y-107850000D01*
G75*
G02*
X25550000Y-108600000I-750000J0D01*
G01*
X24050000Y-108600000D01*
G75*
G02*
X23300000Y-107850000I0J750000D01*
G01*
G37*
%TD.AperFunction*%
D24*
%TO.P,DC2,1*%
%TO.N,12V*%
X30950000Y-106350000D03*
%TD*%
%TO.P,DC4,2*%
%TO.N,Net-(DC4-Pad2)*%
%TA.AperFunction,ComponentPad*%
G36*
G01*
X25650000Y-82225000D02*
X25650000Y-80475000D01*
G75*
G02*
X26525000Y-79600000I875000J0D01*
G01*
X28775000Y-79600000D01*
G75*
G02*
X29650000Y-80475000I0J-875000D01*
G01*
X29650000Y-82225000D01*
G75*
G02*
X28775000Y-83100000I-875000J0D01*
G01*
X26525000Y-83100000D01*
G75*
G02*
X25650000Y-82225000I0J875000D01*
G01*
G37*
%TD.AperFunction*%
%TO.P,DC4,3*%
%TO.N,GND*%
%TA.AperFunction,ComponentPad*%
G36*
G01*
X23300000Y-77850000D02*
X23300000Y-74850000D01*
G75*
G02*
X24050000Y-74100000I750000J0D01*
G01*
X25550000Y-74100000D01*
G75*
G02*
X26300000Y-74850000I0J-750000D01*
G01*
X26300000Y-77850000D01*
G75*
G02*
X25550000Y-78600000I-750000J0D01*
G01*
X24050000Y-78600000D01*
G75*
G02*
X23300000Y-77850000I0J750000D01*
G01*
G37*
%TD.AperFunction*%
%TO.P,DC4,1*%
%TO.N,12V*%
X30950000Y-76350000D03*
%TD*%
%TO.P,DC1,2*%
%TO.N,Net-(DC1-Pad2)*%
%TA.AperFunction,ComponentPad*%
G36*
G01*
X25650000Y-127225000D02*
X25650000Y-125475000D01*
G75*
G02*
X26525000Y-124600000I875000J0D01*
G01*
X28775000Y-124600000D01*
G75*
G02*
X29650000Y-125475000I0J-875000D01*
G01*
X29650000Y-127225000D01*
G75*
G02*
X28775000Y-128100000I-875000J0D01*
G01*
X26525000Y-128100000D01*
G75*
G02*
X25650000Y-127225000I0J875000D01*
G01*
G37*
%TD.AperFunction*%
%TO.P,DC1,3*%
%TO.N,GND*%
%TA.AperFunction,ComponentPad*%
G36*
G01*
X23300000Y-122850000D02*
X23300000Y-119850000D01*
G75*
G02*
X24050000Y-119100000I750000J0D01*
G01*
X25550000Y-119100000D01*
G75*
G02*
X26300000Y-119850000I0J-750000D01*
G01*
X26300000Y-122850000D01*
G75*
G02*
X25550000Y-123600000I-750000J0D01*
G01*
X24050000Y-123600000D01*
G75*
G02*
X23300000Y-122850000I0J750000D01*
G01*
G37*
%TD.AperFunction*%
%TO.P,DC1,1*%
%TO.N,12V*%
X30950000Y-121350000D03*
%TD*%
D13*
%TO.P,R3,2*%
%TO.N,Net-(Convert_12V1-Pad6)*%
X48260000Y-97790000D03*
D14*
%TO.P,R3,1*%
%TO.N,GND*%
X48260000Y-87630000D03*
%TD*%
D18*
%TO.P,Convert_12V1,34*%
%TO.N,Net-(Convert_12V1-Pad34)*%
X82550000Y-101610000D03*
%TO.P,Convert_12V1,33*%
%TO.N,Net-(Convert_12V1-Pad33)*%
X58450000Y-88810000D03*
D19*
%TO.P,Convert_12V1,32*%
%TO.N,Net-(Convert_12V1-Pad32)*%
X62250000Y-88810000D03*
D20*
%TO.P,Convert_12V1,8*%
%TO.N,12V*%
X54650000Y-105410000D03*
D18*
%TO.P,Convert_12V1,7*%
X54650000Y-101610000D03*
%TO.P,Convert_12V1,6*%
%TO.N,Net-(Convert_12V1-Pad6)*%
X54650000Y-97810000D03*
%TO.P,Convert_12V1,5*%
%TO.N,Net-(Convert_12V1-Pad5)*%
X54650000Y-94010000D03*
D20*
%TO.P,Convert_12V1,4*%
%TO.N,GND*%
X54650000Y-90210000D03*
D18*
%TO.P,Convert_12V1,3*%
X82550000Y-90210000D03*
%TO.P,Convert_12V1,2*%
X82550000Y-97810000D03*
%TO.P,Convert_12V1,1*%
%TO.N,24V*%
X82550000Y-105410000D03*
%TD*%
D25*
%TO.P,C2,2*%
%TO.N,GND*%
X93980000Y-51840000D03*
D26*
%TO.P,C2,1*%
%TO.N,5V*%
X93980000Y-53340000D03*
%TD*%
D10*
%TO.P,USB2,4*%
%TO.N,GND*%
X109920000Y-96890000D03*
%TO.P,USB2,3*%
%TO.N,Net-(USB2-Pad3)*%
X109920000Y-99390000D03*
%TO.P,USB2,2*%
%TO.N,Net-(USB2-Pad2)*%
X109920000Y-101390000D03*
D11*
%TO.P,USB2,1*%
%TO.N,5V*%
X109920000Y-103890000D03*
D12*
%TO.P,USB2,5*%
%TO.N,GND*%
X112630000Y-106960000D03*
X112630000Y-93820000D03*
%TD*%
D10*
%TO.P,USB3,4*%
%TO.N,GND*%
X109920000Y-76890000D03*
%TO.P,USB3,3*%
%TO.N,Net-(USB3-Pad3)*%
X109920000Y-79390000D03*
%TO.P,USB3,2*%
%TO.N,Net-(USB3-Pad2)*%
X109920000Y-81390000D03*
D11*
%TO.P,USB3,1*%
%TO.N,5V*%
X109920000Y-83890000D03*
D12*
%TO.P,USB3,5*%
%TO.N,GND*%
X112630000Y-86960000D03*
X112630000Y-73820000D03*
%TD*%
D14*
%TO.P,C4,2*%
%TO.N,GND*%
X93980000Y-101910000D03*
D23*
%TO.P,C4,1*%
%TO.N,24V*%
X93980000Y-105410000D03*
%TD*%
D21*
%TO.P,IN_24V-1,2*%
%TO.N,GND*%
X66040000Y-25400000D03*
D22*
%TO.P,IN_24V-1,1*%
X60960000Y-25400000D03*
%TD*%
%TO.P,DC5,2*%
%TO.N,Net-(DC5-Pad2)*%
%TA.AperFunction,ComponentPad*%
G36*
G01*
X25650000Y-67225000D02*
X25650000Y-65475000D01*
G75*
G02*
X26525000Y-64600000I875000J0D01*
G01*
X28775000Y-64600000D01*
G75*
G02*
X29650000Y-65475000I0J-875000D01*
G01*
X29650000Y-67225000D01*
G75*
G02*
X28775000Y-68100000I-875000J0D01*
G01*
X26525000Y-68100000D01*
G75*
G02*
X25650000Y-67225000I0J875000D01*
G01*
G37*
%TD.AperFunction*%
%TO.P,DC5,3*%
%TO.N,GND*%
%TA.AperFunction,ComponentPad*%
G36*
G01*
X23300000Y-62850000D02*
X23300000Y-59850000D01*
G75*
G02*
X24050000Y-59100000I750000J0D01*
G01*
X25550000Y-59100000D01*
G75*
G02*
X26300000Y-59850000I0J-750000D01*
G01*
X26300000Y-62850000D01*
G75*
G02*
X25550000Y-63600000I-750000J0D01*
G01*
X24050000Y-63600000D01*
G75*
G02*
X23300000Y-62850000I0J750000D01*
G01*
G37*
%TD.AperFunction*%
D24*
%TO.P,DC5,1*%
%TO.N,12V*%
X30950000Y-61350000D03*
%TD*%
D25*
%TO.P,C5,2*%
%TO.N,GND*%
X41910000Y-113260000D03*
D26*
%TO.P,C5,1*%
%TO.N,12V*%
X41910000Y-111760000D03*
%TD*%
D14*
%TO.P,C1,2*%
%TO.N,GND*%
X44450000Y-63190000D03*
D23*
%TO.P,C1,1*%
%TO.N,24V*%
X44450000Y-59690000D03*
%TD*%
%TO.P,DC3,2*%
%TO.N,Net-(DC3-Pad2)*%
%TA.AperFunction,ComponentPad*%
G36*
G01*
X25650000Y-97225000D02*
X25650000Y-95475000D01*
G75*
G02*
X26525000Y-94600000I875000J0D01*
G01*
X28775000Y-94600000D01*
G75*
G02*
X29650000Y-95475000I0J-875000D01*
G01*
X29650000Y-97225000D01*
G75*
G02*
X28775000Y-98100000I-875000J0D01*
G01*
X26525000Y-98100000D01*
G75*
G02*
X25650000Y-97225000I0J875000D01*
G01*
G37*
%TD.AperFunction*%
%TO.P,DC3,3*%
%TO.N,GND*%
%TA.AperFunction,ComponentPad*%
G36*
G01*
X23300000Y-92850000D02*
X23300000Y-89850000D01*
G75*
G02*
X24050000Y-89100000I750000J0D01*
G01*
X25550000Y-89100000D01*
G75*
G02*
X26300000Y-89850000I0J-750000D01*
G01*
X26300000Y-92850000D01*
G75*
G02*
X25550000Y-93600000I-750000J0D01*
G01*
X24050000Y-93600000D01*
G75*
G02*
X23300000Y-92850000I0J750000D01*
G01*
G37*
%TD.AperFunction*%
D24*
%TO.P,DC3,1*%
%TO.N,12V*%
X30950000Y-91350000D03*
%TD*%
D27*
%TO.P,TP_GND1,1*%
%TO.N,GND*%
X87630000Y-134620000D03*
%TD*%
%TO.P,TP_5V1,1*%
%TO.N,5V*%
X80010000Y-134620000D03*
%TD*%
%TO.P,TP_24V1,1*%
%TO.N,24V*%
X25400000Y-50800000D03*
%TD*%
%TO.P,TP_12V1,1*%
%TO.N,12V*%
X72390000Y-134620000D03*
%TD*%
D13*
%TO.P,R1,2*%
%TO.N,GND*%
X66040000Y-33020000D03*
D14*
%TO.P,R1,1*%
%TO.N,Net-(D1-Pad2)*%
X55880000Y-33020000D03*
%TD*%
D28*
%TO.P,Q1,3*%
%TO.N,24V*%
X64770000Y-43180000D03*
%TO.P,Q1,2*%
%TO.N,Net-(F1-Pad1)*%
X62230000Y-43180000D03*
D29*
%TO.P,Q1,1*%
%TO.N,Net-(D1-Pad2)*%
X59690000Y-43180000D03*
%TD*%
D13*
%TO.P,D1,2*%
%TO.N,Net-(D1-Pad2)*%
X58420000Y-36830000D03*
D23*
%TO.P,D1,1*%
%TO.N,24V*%
X66040000Y-36830000D03*
%TD*%
D30*
%TO.N,24V*%
X66040000Y-41910000D02*
X64770000Y-43180000D01*
X66040000Y-36830000D02*
X66040000Y-41910000D01*
D31*
X64770000Y-48260000D02*
X64770000Y-43180000D01*
X66040000Y-44450000D02*
X64770000Y-43180000D01*
X66040000Y-48260000D02*
X66040000Y-44450000D01*
D32*
X54610000Y-59690000D02*
X57150000Y-59690000D01*
X66040000Y-50800000D02*
X66040000Y-44450000D01*
X57150000Y-59690000D02*
X66040000Y-50800000D01*
X54610000Y-59690000D02*
X56212002Y-59690000D01*
X54610000Y-59690000D02*
X44450000Y-59690000D01*
D30*
X35560000Y-50800000D02*
X44450000Y-59690000D01*
X25400000Y-50800000D02*
X35560000Y-50800000D01*
D32*
X56212002Y-59690000D02*
X62230000Y-59690000D01*
D33*
X80317999Y-106260001D02*
X82550000Y-106260001D01*
X66850001Y-92792003D02*
X80317999Y-106260001D01*
X66850001Y-64310001D02*
X66850001Y-92792003D01*
X62230000Y-59690000D02*
X66850001Y-64310001D01*
D32*
X82550000Y-105410000D02*
X93980000Y-105410000D01*
D33*
%TO.N,GND*%
X66040000Y-25400000D02*
X60960000Y-25400000D01*
D30*
X87630000Y-134620000D02*
X97790000Y-134620000D01*
D32*
%TO.N,5V*%
X106457999Y-123051761D02*
X106457999Y-106545999D01*
X102870000Y-126639760D02*
X106457999Y-123051761D01*
D34*
X107296238Y-123890000D02*
X106457999Y-123051761D01*
X109920000Y-123890000D02*
X107296238Y-123890000D01*
X108776238Y-103890000D02*
X107534237Y-102647999D01*
X109920000Y-103890000D02*
X108776238Y-103890000D01*
X107534237Y-102647999D02*
X106457999Y-102647999D01*
D32*
X106457999Y-106545999D02*
X106457999Y-102647999D01*
D34*
X107880000Y-83890000D02*
X106457999Y-85312001D01*
X109920000Y-83890000D02*
X107880000Y-83890000D01*
D32*
X106457999Y-102647999D02*
X106457999Y-85312001D01*
D34*
X107560000Y-63890000D02*
X106457999Y-64992001D01*
X109920000Y-63890000D02*
X107560000Y-63890000D01*
D32*
X106457999Y-64992001D02*
X106457999Y-43402001D01*
X106457999Y-85312001D02*
X106457999Y-64992001D01*
D34*
X106945998Y-43890000D02*
X106457999Y-43402001D01*
X109920000Y-43890000D02*
X106945998Y-43890000D01*
D30*
X101600000Y-132080000D02*
X102870000Y-133350000D01*
D32*
X102870000Y-133350000D02*
X102870000Y-126639760D01*
X102870000Y-134620000D02*
X102870000Y-133350000D01*
D30*
X80010000Y-134620000D02*
X83820000Y-138430000D01*
X99060000Y-138430000D02*
X102870000Y-134620000D01*
X83820000Y-138430000D02*
X99060000Y-138430000D01*
D33*
X82510000Y-59690000D02*
X82510000Y-62639999D01*
D34*
X93980000Y-59690000D02*
X93980000Y-54140001D01*
D33*
X105187999Y-57372001D02*
X105457999Y-57372001D01*
X104870001Y-57689999D02*
X105187999Y-57372001D01*
X84510001Y-57689999D02*
X104870001Y-57689999D01*
X82510000Y-59690000D02*
X84510001Y-57689999D01*
%TO.N,12V*%
X30950000Y-91350000D02*
X30950000Y-90970000D01*
X33350010Y-93579968D02*
X31035021Y-91264979D01*
X33350010Y-99120032D02*
X33350010Y-93579968D01*
X30950000Y-101520042D02*
X33350010Y-99120032D01*
X30950000Y-106350000D02*
X30950000Y-101520042D01*
X33350010Y-63579968D02*
X31035021Y-61264979D01*
X33350010Y-69120032D02*
X33350010Y-63579968D01*
X30950000Y-71520042D02*
X33350010Y-69120032D01*
X30950000Y-76350000D02*
X30950000Y-71520042D01*
X31120042Y-76350000D02*
X30950000Y-76350000D01*
X33350010Y-78579968D02*
X31120042Y-76350000D01*
X33350010Y-84120032D02*
X33350010Y-78579968D01*
X30950000Y-86520042D02*
X33350010Y-84120032D01*
X30950000Y-91350000D02*
X30950000Y-86520042D01*
X30950000Y-121350000D02*
X31180000Y-121350000D01*
X39490001Y-132123999D02*
X39490001Y-134620000D01*
X36830000Y-129463998D02*
X39490001Y-132123999D01*
X36830000Y-127000000D02*
X36830000Y-129463998D01*
X31180000Y-121350000D02*
X36830000Y-127000000D01*
D30*
X71120000Y-134620000D02*
X72390000Y-135890000D01*
X39370000Y-134620000D02*
X71120000Y-134620000D01*
D33*
X54650000Y-105410000D02*
X54650000Y-102460001D01*
X33350010Y-108579968D02*
X33350010Y-114120032D01*
X32180043Y-107410001D02*
X33350010Y-108579968D01*
X52649999Y-107410001D02*
X32180043Y-107410001D01*
X30950000Y-116520042D02*
X30950000Y-121350000D01*
X33350010Y-114120032D02*
X30950000Y-116520042D01*
X54650000Y-105410000D02*
X52649999Y-107410001D01*
D34*
X41910000Y-105410000D02*
X41910000Y-110959999D01*
D30*
X42290000Y-121540000D02*
X36830000Y-127000000D01*
X43070000Y-121540000D02*
X42290000Y-121540000D01*
%TO.N,Net-(Convert_12V1-Pad6)*%
X54630000Y-97790000D02*
X54650000Y-97810000D01*
X48260000Y-97790000D02*
X54630000Y-97790000D01*
%TO.N,Net-(Convert_5V1-Pad6)*%
X88880000Y-67290000D02*
X88900000Y-67310000D01*
X82510000Y-67290000D02*
X88880000Y-67290000D01*
%TO.N,Net-(D1-Pad2)*%
X55880000Y-34290000D02*
X58420000Y-36830000D01*
X55880000Y-33020000D02*
X55880000Y-34290000D01*
X58420000Y-41910000D02*
X59690000Y-43180000D01*
X58420000Y-36830000D02*
X58420000Y-41910000D01*
D33*
%TO.N,Net-(F1-Pad1)*%
X46990000Y-40640000D02*
X54230001Y-47880001D01*
X54230001Y-47880001D02*
X55777499Y-47880001D01*
D31*
X62230000Y-43180000D02*
X62230000Y-47267142D01*
D33*
X55777499Y-47880001D02*
X59690000Y-47880001D01*
D31*
X62230000Y-43180000D02*
X61842501Y-43567499D01*
X61602501Y-45380001D02*
X59690000Y-45380001D01*
X61842501Y-45140001D02*
X61842501Y-43567499D01*
X61602501Y-45380001D02*
X61842501Y-45140001D01*
D33*
%TO.N,Net-(F1-Pad2)*%
X39730000Y-25400000D02*
X24490000Y-40640000D01*
X43180000Y-25400000D02*
X39730000Y-25400000D01*
X48260000Y-25400000D02*
X43180000Y-25400000D01*
%TD*%
M02*
