%TF.GenerationSoftware,KiCad,Pcbnew,5.1.12-84ad8e8a86~92~ubuntu20.04.1*%
%TF.CreationDate,2021-11-20T18:36:58+00:00*%
%TF.ProjectId,single,73696e67-6c65-42e6-9b69-6361645f7063,rev?*%
%TF.SameCoordinates,Original*%
%TF.FileFunction,Legend,Bot*%
%TF.FilePolarity,Positive*%
%FSLAX46Y46*%
G04 Gerber Fmt 4.6, Leading zero omitted, Abs format (unit mm)*
G04 Created by KiCad (PCBNEW 5.1.12-84ad8e8a86~92~ubuntu20.04.1) date 2021-11-20 18:36:58*
%MOMM*%
%LPD*%
G01*
G04 APERTURE LIST*
%ADD10C,1.524000*%
%ADD11R,1.524000X1.524000*%
%ADD12C,3.500000*%
%ADD13O,1.600000X1.600000*%
%ADD14C,1.600000*%
%ADD15O,3.500000X2.000000*%
%ADD16C,1.400000*%
%ADD17R,1.400000X1.400000*%
%ADD18C,3.200000*%
%ADD19C,1.900000*%
%ADD20C,1.800000*%
%ADD21C,2.500000*%
%ADD22C,3.000000*%
%ADD23R,3.000000X3.000000*%
%ADD24R,1.600000X1.600000*%
%ADD25R,3.500000X4.500000*%
%ADD26C,1.200000*%
%ADD27R,1.200000X1.200000*%
%ADD28O,1.905000X2.000000*%
%ADD29R,1.905000X2.000000*%
G04 APERTURE END LIST*
%LPC*%
D10*
%TO.C,USB4*%
X109920000Y-56890000D03*
X109920000Y-59390000D03*
X109920000Y-61390000D03*
D11*
X109920000Y-63890000D03*
D12*
X112630000Y-66960000D03*
X112630000Y-53820000D03*
%TD*%
D13*
%TO.C,R2*%
X88900000Y-67310000D03*
D14*
X88900000Y-77470000D03*
%TD*%
D15*
%TO.C,FAN_12V1*%
X84070000Y-113540000D03*
X52070000Y-113540000D03*
X84070000Y-129540000D03*
X52070000Y-129540000D03*
D16*
X43070000Y-123540000D03*
D17*
X43070000Y-121540000D03*
%TD*%
D18*
%TO.C,F1*%
X46990000Y-40640000D03*
X24490000Y-40640000D03*
X35740000Y-40640000D03*
%TD*%
D19*
%TO.C,Convert_5V1*%
X54610000Y-63490000D03*
X78710000Y-76290000D03*
D20*
X74910000Y-76290000D03*
D21*
X82510000Y-59690000D03*
D19*
X82510000Y-63490000D03*
X82510000Y-67290000D03*
X82510000Y-71090000D03*
D21*
X82510000Y-74890000D03*
D19*
X54610000Y-74890000D03*
X54610000Y-67290000D03*
X54610000Y-59690000D03*
%TD*%
D10*
%TO.C,USB5*%
X109920000Y-36890000D03*
X109920000Y-39390000D03*
X109920000Y-41390000D03*
D11*
X109920000Y-43890000D03*
D12*
X112630000Y-46960000D03*
X112630000Y-33820000D03*
%TD*%
D10*
%TO.C,USB1*%
X109920000Y-116890000D03*
X109920000Y-119390000D03*
X109920000Y-121390000D03*
D11*
X109920000Y-123890000D03*
D12*
X112630000Y-126960000D03*
X112630000Y-113820000D03*
%TD*%
D22*
%TO.C,OUT_5V1*%
X97790000Y-134620000D03*
D23*
X102870000Y-134620000D03*
%TD*%
D14*
%TO.C,C3*%
X93980000Y-62190000D03*
D24*
X93980000Y-59690000D03*
%TD*%
D22*
%TO.C,OUT_12V1*%
X34290000Y-134620000D03*
D23*
X39370000Y-134620000D03*
%TD*%
D14*
%TO.C,C6*%
X41910000Y-102910000D03*
D24*
X41910000Y-105410000D03*
%TD*%
D22*
%TO.C,IN_24V+1*%
X48260000Y-25400000D03*
D23*
X43180000Y-25400000D03*
%TD*%
%TO.C,DC2*%
G36*
G01*
X25650000Y-112225000D02*
X25650000Y-110475000D01*
G75*
G02*
X26525000Y-109600000I875000J0D01*
G01*
X28775000Y-109600000D01*
G75*
G02*
X29650000Y-110475000I0J-875000D01*
G01*
X29650000Y-112225000D01*
G75*
G02*
X28775000Y-113100000I-875000J0D01*
G01*
X26525000Y-113100000D01*
G75*
G02*
X25650000Y-112225000I0J875000D01*
G01*
G37*
G36*
G01*
X23300000Y-107850000D02*
X23300000Y-104850000D01*
G75*
G02*
X24050000Y-104100000I750000J0D01*
G01*
X25550000Y-104100000D01*
G75*
G02*
X26300000Y-104850000I0J-750000D01*
G01*
X26300000Y-107850000D01*
G75*
G02*
X25550000Y-108600000I-750000J0D01*
G01*
X24050000Y-108600000D01*
G75*
G02*
X23300000Y-107850000I0J750000D01*
G01*
G37*
D25*
X30950000Y-106350000D03*
%TD*%
%TO.C,DC4*%
G36*
G01*
X25650000Y-82225000D02*
X25650000Y-80475000D01*
G75*
G02*
X26525000Y-79600000I875000J0D01*
G01*
X28775000Y-79600000D01*
G75*
G02*
X29650000Y-80475000I0J-875000D01*
G01*
X29650000Y-82225000D01*
G75*
G02*
X28775000Y-83100000I-875000J0D01*
G01*
X26525000Y-83100000D01*
G75*
G02*
X25650000Y-82225000I0J875000D01*
G01*
G37*
G36*
G01*
X23300000Y-77850000D02*
X23300000Y-74850000D01*
G75*
G02*
X24050000Y-74100000I750000J0D01*
G01*
X25550000Y-74100000D01*
G75*
G02*
X26300000Y-74850000I0J-750000D01*
G01*
X26300000Y-77850000D01*
G75*
G02*
X25550000Y-78600000I-750000J0D01*
G01*
X24050000Y-78600000D01*
G75*
G02*
X23300000Y-77850000I0J750000D01*
G01*
G37*
X30950000Y-76350000D03*
%TD*%
%TO.C,DC1*%
G36*
G01*
X25650000Y-127225000D02*
X25650000Y-125475000D01*
G75*
G02*
X26525000Y-124600000I875000J0D01*
G01*
X28775000Y-124600000D01*
G75*
G02*
X29650000Y-125475000I0J-875000D01*
G01*
X29650000Y-127225000D01*
G75*
G02*
X28775000Y-128100000I-875000J0D01*
G01*
X26525000Y-128100000D01*
G75*
G02*
X25650000Y-127225000I0J875000D01*
G01*
G37*
G36*
G01*
X23300000Y-122850000D02*
X23300000Y-119850000D01*
G75*
G02*
X24050000Y-119100000I750000J0D01*
G01*
X25550000Y-119100000D01*
G75*
G02*
X26300000Y-119850000I0J-750000D01*
G01*
X26300000Y-122850000D01*
G75*
G02*
X25550000Y-123600000I-750000J0D01*
G01*
X24050000Y-123600000D01*
G75*
G02*
X23300000Y-122850000I0J750000D01*
G01*
G37*
X30950000Y-121350000D03*
%TD*%
D13*
%TO.C,R3*%
X48260000Y-97790000D03*
D14*
X48260000Y-87630000D03*
%TD*%
D19*
%TO.C,Convert_12V1*%
X82550000Y-101610000D03*
X58450000Y-88810000D03*
D20*
X62250000Y-88810000D03*
D21*
X54650000Y-105410000D03*
D19*
X54650000Y-101610000D03*
X54650000Y-97810000D03*
X54650000Y-94010000D03*
D21*
X54650000Y-90210000D03*
D19*
X82550000Y-90210000D03*
X82550000Y-97810000D03*
X82550000Y-105410000D03*
%TD*%
D26*
%TO.C,C2*%
X93980000Y-51840000D03*
D27*
X93980000Y-53340000D03*
%TD*%
D10*
%TO.C,USB2*%
X109920000Y-96890000D03*
X109920000Y-99390000D03*
X109920000Y-101390000D03*
D11*
X109920000Y-103890000D03*
D12*
X112630000Y-106960000D03*
X112630000Y-93820000D03*
%TD*%
D10*
%TO.C,USB3*%
X109920000Y-76890000D03*
X109920000Y-79390000D03*
X109920000Y-81390000D03*
D11*
X109920000Y-83890000D03*
D12*
X112630000Y-86960000D03*
X112630000Y-73820000D03*
%TD*%
D14*
%TO.C,C4*%
X93980000Y-101910000D03*
D24*
X93980000Y-105410000D03*
%TD*%
D22*
%TO.C,IN_24V-1*%
X66040000Y-25400000D03*
D23*
X60960000Y-25400000D03*
%TD*%
%TO.C,DC5*%
G36*
G01*
X25650000Y-67225000D02*
X25650000Y-65475000D01*
G75*
G02*
X26525000Y-64600000I875000J0D01*
G01*
X28775000Y-64600000D01*
G75*
G02*
X29650000Y-65475000I0J-875000D01*
G01*
X29650000Y-67225000D01*
G75*
G02*
X28775000Y-68100000I-875000J0D01*
G01*
X26525000Y-68100000D01*
G75*
G02*
X25650000Y-67225000I0J875000D01*
G01*
G37*
G36*
G01*
X23300000Y-62850000D02*
X23300000Y-59850000D01*
G75*
G02*
X24050000Y-59100000I750000J0D01*
G01*
X25550000Y-59100000D01*
G75*
G02*
X26300000Y-59850000I0J-750000D01*
G01*
X26300000Y-62850000D01*
G75*
G02*
X25550000Y-63600000I-750000J0D01*
G01*
X24050000Y-63600000D01*
G75*
G02*
X23300000Y-62850000I0J750000D01*
G01*
G37*
D25*
X30950000Y-61350000D03*
%TD*%
D26*
%TO.C,C5*%
X41910000Y-113260000D03*
D27*
X41910000Y-111760000D03*
%TD*%
D14*
%TO.C,C1*%
X44450000Y-63190000D03*
D24*
X44450000Y-59690000D03*
%TD*%
%TO.C,DC3*%
G36*
G01*
X25650000Y-97225000D02*
X25650000Y-95475000D01*
G75*
G02*
X26525000Y-94600000I875000J0D01*
G01*
X28775000Y-94600000D01*
G75*
G02*
X29650000Y-95475000I0J-875000D01*
G01*
X29650000Y-97225000D01*
G75*
G02*
X28775000Y-98100000I-875000J0D01*
G01*
X26525000Y-98100000D01*
G75*
G02*
X25650000Y-97225000I0J875000D01*
G01*
G37*
G36*
G01*
X23300000Y-92850000D02*
X23300000Y-89850000D01*
G75*
G02*
X24050000Y-89100000I750000J0D01*
G01*
X25550000Y-89100000D01*
G75*
G02*
X26300000Y-89850000I0J-750000D01*
G01*
X26300000Y-92850000D01*
G75*
G02*
X25550000Y-93600000I-750000J0D01*
G01*
X24050000Y-93600000D01*
G75*
G02*
X23300000Y-92850000I0J750000D01*
G01*
G37*
D25*
X30950000Y-91350000D03*
%TD*%
D18*
%TO.C,H4*%
X115000000Y-135000000D03*
%TD*%
%TO.C,H3*%
X25000000Y-135000000D03*
%TD*%
%TO.C,H2*%
X115000000Y-25000000D03*
%TD*%
%TO.C,H1*%
X25000000Y-25000000D03*
%TD*%
D13*
%TO.C,R1*%
X66040000Y-33020000D03*
D14*
X55880000Y-33020000D03*
%TD*%
D28*
%TO.C,Q1*%
X64770000Y-43180000D03*
X62230000Y-43180000D03*
D29*
X59690000Y-43180000D03*
%TD*%
D13*
%TO.C,D1*%
X58420000Y-36830000D03*
D24*
X66040000Y-36830000D03*
%TD*%
M02*
