M48
; DRILL file {KiCad 5.1.12-84ad8e8a86~92~ubuntu20.04.1} date Sat 20 Nov 2021 17:30:20 GMT
; FORMAT={-:-/ absolute / metric / decimal}
; #@! TF.CreationDate,2021-11-20T17:30:20+00:00
; #@! TF.GenerationSoftware,Kicad,Pcbnew,5.1.12-84ad8e8a86~92~ubuntu20.04.1
; #@! TF.FileFunction,Plated,1,2,PTH
FMAT,2
METRIC
T1C0.600
T2C0.700
T3C0.800
T4C0.920
T5C1.000
T6C1.100
T7C1.200
T8C1.500
T9C1.520
T10C1.800
T11C2.300
%
G90
G05
T1
X41.91Y-111.76
X41.91Y-113.26
X93.98Y-51.84
X93.98Y-53.34
T2
X43.07Y-121.54
X43.07Y-123.54
T3
X41.91Y-102.91
X41.91Y-105.41
X44.45Y-59.69
X44.45Y-63.19
X48.26Y-87.63
X48.26Y-97.79
X55.88Y-33.02
X58.42Y-36.83
X66.04Y-33.02
X66.04Y-36.83
X88.9Y-67.31
X88.9Y-77.47
X93.98Y-59.69
X93.98Y-62.19
X93.98Y-101.91
X93.98Y-105.41
T4
X109.92Y-36.89
X109.92Y-39.39
X109.92Y-41.39
X109.92Y-43.89
X109.92Y-56.89
X109.92Y-59.39
X109.92Y-61.39
X109.92Y-63.89
X109.92Y-76.89
X109.92Y-79.39
X109.92Y-81.39
X109.92Y-83.89
X109.92Y-96.89
X109.92Y-99.39
X109.92Y-101.39
X109.92Y-103.89
X109.92Y-116.89
X109.92Y-119.39
X109.92Y-121.39
X109.92Y-123.89
T6
X59.69Y-43.18
X62.23Y-43.18
X64.77Y-43.18
T7
X54.61Y-59.69
X54.61Y-63.49
X54.61Y-67.29
X54.61Y-74.89
X54.65Y-94.01
X54.65Y-97.81
X54.65Y-101.61
X58.45Y-88.81
X62.25Y-88.81
X74.91Y-76.29
X78.71Y-76.29
X82.51Y-63.49
X82.51Y-67.29
X82.51Y-71.09
X82.55Y-90.21
X82.55Y-97.81
X82.55Y-101.61
X82.55Y-105.41
T8
X24.49Y-40.64
X46.99Y-40.64
T9
X34.29Y-134.62
X39.37Y-134.62
X43.18Y-25.4
X48.26Y-25.4
X60.96Y-25.4
X66.04Y-25.4
X97.79Y-134.62
X102.87Y-134.62
T10
X54.65Y-90.21
X54.65Y-105.41
X82.51Y-59.69
X82.51Y-74.89
T11
X112.63Y-33.82
X112.63Y-46.96
X112.63Y-53.82
X112.63Y-66.96
X112.63Y-73.82
X112.63Y-86.96
X112.63Y-93.82
X112.63Y-106.96
X112.63Y-113.82
X112.63Y-126.96
T5
X24.8Y-60.1G85X24.8Y-62.6
G05
X24.8Y-75.1G85X24.8Y-77.6
G05
X24.8Y-90.1G85X24.8Y-92.6
G05
X24.8Y-105.1G85X24.8Y-107.6
G05
X24.8Y-120.1G85X24.8Y-122.6
G05
X26.4Y-66.35G85X28.9Y-66.35
G05
X26.4Y-81.35G85X28.9Y-81.35
G05
X26.4Y-96.35G85X28.9Y-96.35
G05
X26.4Y-111.35G85X28.9Y-111.35
G05
X26.4Y-126.35G85X28.9Y-126.35
G05
X30.95Y-60.1G85X30.95Y-62.6
G05
X30.95Y-75.1G85X30.95Y-77.6
G05
X30.95Y-90.1G85X30.95Y-92.6
G05
X30.95Y-105.1G85X30.95Y-107.6
G05
X30.95Y-120.1G85X30.95Y-122.6
G05
T0
M30
